<svg width="32" height="28" viewBox="0 0 32 28" fill="none" xmlns="http://www.w3.org/2000/svg">
<path d="M30.25 25.9968V3.10017C30.25 2.81517 30.1587 2.58136 29.976 2.39875C29.7934 2.21614 29.5602 2.12484 29.2762 2.12484H2.72371C2.43976 2.12484 2.20649 2.21614 2.02388 2.39875C1.84126 2.58136 1.74996 2.81517 1.74996 3.10017V13.9998C1.74996 14.2257 1.67449 14.4141 1.52354 14.5651C1.3726 14.716 1.18418 14.7915 0.958293 14.7915C0.732404 14.7915 0.543987 14.716 0.393042 14.5651C0.242098 14.4141 0.166626 14.2257 0.166626 13.9998V3.10017C0.166626 2.39084 0.415737 1.78706 0.913959 1.28884C1.41218 0.790615 2.01596 0.541504 2.72529 0.541504H29.2762C29.9834 0.541504 30.5867 0.790615 31.086 1.28884C31.5842 1.78706 31.8333 2.39084 31.8333 3.10017V23.8355C31.8333 24.3411 31.6855 24.7918 31.39 25.1877C31.0944 25.5846 30.7144 25.8543 30.25 25.9968ZM11.25 16.1928C9.93474 16.1928 8.81426 15.7299 7.88854 14.8042C6.96282 13.8784 6.49996 12.758 6.49996 11.4428C6.49996 10.1275 6.96282 9.00706 7.88854 8.08134C8.81426 7.15561 9.93474 6.69275 11.25 6.69275C12.5652 6.69275 13.6857 7.15561 14.6114 8.08134C15.5371 9.00706 16 10.1275 16 11.4428C16 12.758 15.5371 13.8784 14.6114 14.8042C13.6857 15.7299 12.5652 16.1928 11.25 16.1928ZM1.81171 27.6403C1.34621 27.6403 0.955654 27.4824 0.640043 27.1668C0.324432 26.8512 0.166626 26.4612 0.166626 25.9968V25.0341C0.166626 24.3807 0.356626 23.7695 0.736626 23.2006C1.11768 22.6306 1.62963 22.1883 2.27246 21.8738C3.76713 21.157 5.26285 20.6198 6.75963 20.2619C8.25535 19.903 9.75213 19.7236 11.25 19.7236C12.7478 19.7236 14.2451 19.903 15.7419 20.2619C17.2387 20.6208 18.7333 21.1581 20.2259 21.8738C20.8698 22.1883 21.3817 22.6306 21.7617 23.2006C22.1428 23.7695 22.3333 24.3807 22.3333 25.0341V25.9968C22.3333 26.4612 22.1755 26.8518 21.8599 27.1684C21.5443 27.483 21.1537 27.6403 20.6882 27.6403H1.81171Z" fill="#0A2D2E"/>
</svg>
