<svg width="24" height="27" viewBox="0 0 24 27" fill="none" xmlns="http://www.w3.org/2000/svg">
<path d="M0 23.25V9.75C0 9.275 0.1065 8.825 0.3195 8.4C0.5325 7.975 0.826 7.625 1.2 7.35L10.2 0.6C10.725 0.2 11.325 0 12 0C12.675 0 13.275 0.2 13.8 0.6L22.8 7.35C23.175 7.625 23.469 7.975 23.682 8.4C23.895 8.825 24.001 9.275 24 9.75V23.25C24 24.075 23.706 24.7815 23.118 25.3695C22.53 25.9575 21.824 26.251 21 26.25H16.5C16.075 26.25 15.719 26.106 15.432 25.818C15.145 25.53 15.001 25.174 15 24.75V17.25C15 16.825 14.856 16.469 14.568 16.182C14.28 15.895 13.924 15.751 13.5 15.75H10.5C10.075 15.75 9.719 15.894 9.432 16.182C9.145 16.47 9.001 16.826 9 17.25V24.75C9 25.175 8.856 25.5315 8.568 25.8195C8.28 26.1075 7.924 26.251 7.5 26.25H3C2.175 26.25 1.469 25.9565 0.882 25.3695C0.295 24.7825 0.001 24.076 0 23.25Z" fill="#0A2D2E"/>
</svg>
