<svg width="32" height="32" viewBox="0 0 32 32" fill="none" xmlns="http://www.w3.org/2000/svg">
<path d="M4.00001 22.6665H28C28.3398 22.6669 28.6667 22.797 28.9138 23.0303C29.1609 23.2636 29.3097 23.5824 29.3296 23.9217C29.3495 24.261 29.2391 24.595 29.021 24.8556C28.8029 25.1162 28.4935 25.2837 28.156 25.3238L28 25.3332H4.00001C3.66017 25.3328 3.3333 25.2027 3.08618 24.9694C2.83907 24.7361 2.69036 24.4172 2.67045 24.078C2.65053 23.7387 2.76091 23.4047 2.97903 23.1441C3.19715 22.8835 3.50655 22.716 3.84401 22.6758L4.00001 22.6665ZM4.00001 14.6665L28 14.6638C28.3398 14.6642 28.6667 14.7943 28.9138 15.0276C29.1609 15.2609 29.3097 15.5798 29.3296 15.919C29.3495 16.2583 29.2391 16.5923 29.021 16.8529C28.8029 17.1136 28.4935 17.281 28.156 17.3212L28 17.3305L4.00001 17.3332C3.66017 17.3328 3.3333 17.2027 3.08618 16.9694C2.83907 16.7361 2.69036 16.4172 2.67045 16.078C2.65053 15.7387 2.76091 15.4047 2.97903 15.1441C3.19715 14.8835 3.50655 14.716 3.84401 14.6758L4.00001 14.6665ZM4.00001 6.6665H28C28.3398 6.66688 28.6667 6.79701 28.9138 7.0303C29.1609 7.26359 29.3097 7.58244 29.3296 7.9217C29.3495 8.26095 29.2391 8.59501 29.021 8.85561C28.8029 9.11622 28.4935 9.2837 28.156 9.32384L28 9.33317H4.00001C3.66017 9.33279 3.3333 9.20267 3.08618 8.96937C2.83907 8.73608 2.69036 8.41723 2.67045 8.07798C2.65053 7.73872 2.76091 7.40466 2.97903 7.14406C3.19715 6.88346 3.50655 6.71598 3.84401 6.67584L4.00001 6.6665Z" fill="black"/>
</svg>
