<svg width="100" height="43" viewBox="0 0 100 43" fill="none" xmlns="http://www.w3.org/2000/svg">
<path d="M5.304 26.288C4.552 26.288 3.864 26.216 3.24 26.072C2.616 25.944 2.096 25.8 1.68 25.64C1.264 25.48 1.056 25.392 1.056 25.376L0.864 25.04C0.88 24.928 0.912 24.688 0.96 24.32C1.024 23.936 1.088 23.424 1.152 22.784C1.216 22.144 1.248 21.536 1.248 20.96L3.264 20.792C3.264 21.688 3.344 22.376 3.504 22.856C3.664 23.336 3.928 23.672 4.296 23.864C4.68 24.056 5.216 24.152 5.904 24.152C6.656 24.152 7.256 23.984 7.704 23.648C8.168 23.312 8.4 22.864 8.4 22.304C8.4 21.936 8.272 21.608 8.016 21.32C7.76 21.032 7.448 20.784 7.08 20.576C6.712 20.352 6.176 20.064 5.472 19.712L4.848 19.424C3.664 18.848 2.736 18.24 2.064 17.6C1.392 16.96 1.056 16.128 1.056 15.104C1.056 14.176 1.328 13.352 1.872 12.632C2.416 11.896 3.176 11.328 4.152 10.928C5.128 10.512 6.24 10.304 7.488 10.304C8.192 10.304 8.848 10.352 9.456 10.448C10.064 10.544 10.544 10.648 10.896 10.76C11.264 10.856 11.496 10.92 11.592 10.952L11.76 11.264C11.712 11.488 11.616 12.008 11.472 12.824C11.344 13.624 11.248 14.48 11.184 15.392L9.36 15.536L9.144 15.368C9.144 15.32 9.144 15.224 9.144 15.08C9.16 14.92 9.168 14.736 9.168 14.528C9.168 13.824 8.992 13.328 8.64 13.04C8.288 12.736 7.696 12.584 6.864 12.584C6.192 12.584 5.64 12.744 5.208 13.064C4.776 13.384 4.56 13.792 4.56 14.288C4.56 14.832 4.816 15.296 5.328 15.68C5.84 16.048 6.632 16.48 7.704 16.976C8.6 17.408 9.336 17.8 9.912 18.152C10.488 18.504 10.976 18.96 11.376 19.52C11.776 20.064 11.976 20.704 11.976 21.44C11.976 22.4 11.696 23.248 11.136 23.984C10.592 24.72 9.816 25.288 8.808 25.688C7.8 26.088 6.632 26.288 5.304 26.288ZM17.2569 10.592C17.8809 10.592 18.5689 10.576 19.3209 10.544C20.0729 10.512 20.6009 10.488 20.9049 10.472C22.9689 10.472 24.4489 10.912 25.3449 11.792C26.2409 12.656 26.6889 13.76 26.6889 15.104C26.6889 16.048 26.4169 16.944 25.8729 17.792C25.3449 18.624 24.6409 19.296 23.7609 19.808C22.8809 20.304 21.9449 20.552 20.9529 20.552H18.9129L18.8889 22.328C18.8889 22.936 18.9129 23.384 18.9609 23.672C19.0249 23.96 19.1289 24.16 19.2729 24.272C19.4329 24.384 19.6809 24.44 20.0169 24.44C20.2409 24.44 20.4569 24.432 20.6649 24.416C20.8729 24.4 21.0089 24.384 21.0729 24.368L21.1449 24.512L20.9289 26.072C20.7049 26.072 20.2889 26.056 19.6809 26.024C19.0729 26.008 18.4809 26 17.9049 26C17.3769 26 16.6489 26.024 15.7209 26.072C14.8089 26.12 14.2009 26.16 13.8969 26.192L14.0889 24.56C14.7449 24.448 15.1849 24.256 15.4089 23.984C15.6329 23.712 15.7449 23.24 15.7449 22.568V13.448C15.7449 12.936 15.6889 12.592 15.5769 12.416C15.4809 12.24 15.2809 12.152 14.9769 12.152C14.8009 12.152 14.6329 12.16 14.4729 12.176C14.3129 12.192 14.2089 12.2 14.1609 12.2L14.0169 12.008L14.2329 10.568L17.2569 10.592ZM21.0969 18.704C22.5529 18.4 23.2809 17.312 23.2809 15.44C23.2809 14.432 23.0009 13.696 22.4409 13.232C21.8809 12.768 20.9849 12.536 19.7529 12.536C19.5289 12.536 19.3849 12.56 19.3209 12.608C19.2729 12.64 19.2409 12.76 19.2249 12.968C19.1129 15.032 19.0329 16.848 18.9849 18.416L21.0969 18.704ZM33.0285 13.328C32.8365 17.2 32.7405 20.36 32.7405 22.808C32.7405 23.464 32.8045 23.904 32.9325 24.128C33.0605 24.336 33.3085 24.44 33.6765 24.44C33.9325 24.44 34.1485 24.432 34.3245 24.416C34.5165 24.4 34.6365 24.384 34.6845 24.368L34.8045 24.536L34.5885 26.072C34.3165 26.072 33.8205 26.056 33.1005 26.024C32.3965 26.008 31.7085 26 31.0365 26C30.4605 26 29.8125 26.024 29.0925 26.072C28.3725 26.136 27.9005 26.184 27.6765 26.216L27.8445 24.656C28.5485 24.512 29.0125 24.304 29.2365 24.032C29.4765 23.76 29.5965 23.296 29.5965 22.64V13.4C29.5965 12.904 29.5405 12.576 29.4285 12.416C29.3165 12.24 29.0845 12.152 28.7325 12.152L27.9165 12.176L27.7965 11.984L27.9645 10.568L31.3005 10.592C31.7485 10.592 32.3645 10.568 33.1485 10.52C33.9485 10.472 34.4765 10.44 34.7325 10.424L34.5885 12.032C33.9805 12.112 33.5725 12.24 33.3645 12.416C33.1725 12.576 33.0605 12.88 33.0285 13.328ZM48.8261 22.832C49.0021 23.408 49.2261 23.816 49.4981 24.056C49.7701 24.296 50.1701 24.44 50.6981 24.488L50.7941 24.656L50.6261 26.072C50.4181 26.056 50.0261 26.04 49.4501 26.024C48.8741 26.008 48.2821 26 47.6741 26C46.8261 26 45.9941 26.024 45.1781 26.072C44.3621 26.136 43.8421 26.176 43.6181 26.192L43.4981 26L43.6181 24.536C44.1621 24.488 44.5541 24.44 44.7941 24.392C45.0501 24.328 45.2261 24.248 45.3221 24.152C45.4181 24.04 45.4661 23.88 45.4661 23.672C45.4661 23.48 45.4181 23.216 45.3221 22.88L44.8421 21.056C44.4261 21.04 43.6981 21.032 42.6581 21.032C42.0341 21.032 41.2741 21.088 40.3781 21.2L39.8021 23C39.7061 23.336 39.6581 23.584 39.6581 23.744C39.6581 24.016 39.7381 24.208 39.8981 24.32C40.0581 24.416 40.3461 24.464 40.7621 24.464H41.7701L41.8901 24.632L41.7221 26.144C41.4981 26.128 41.0101 26.096 40.2581 26.048C39.5221 26.016 38.8421 26 38.2181 26C37.5461 26 36.9301 26.008 36.3701 26.024C35.8261 26.04 35.4661 26.056 35.2901 26.072L35.4821 24.464C35.8661 24.4 36.1701 24.256 36.3941 24.032C36.6341 23.792 36.8501 23.408 37.0421 22.88L41.3141 10.712L45.1301 10.328L45.3941 10.448C45.6341 11.36 46.1301 13.232 46.8821 16.064C47.6501 18.88 48.2981 21.136 48.8261 22.832ZM42.6341 19.136C43.1461 19.136 43.7381 19.104 44.4101 19.04L43.0181 13.76H42.6821L40.9541 19.136H42.6341ZM59.4101 26.384C58.0501 22.032 56.8261 18.344 55.7381 15.32H55.5221C55.4741 16.136 55.3781 17.672 55.2341 19.928C55.1061 22.168 55.0421 23.408 55.0421 23.648C55.0421 24.176 55.2981 24.44 55.8101 24.44C55.9541 24.44 56.1061 24.432 56.2661 24.416C56.4421 24.4 56.5621 24.392 56.6261 24.392L56.7461 24.536L56.5061 26.096C56.2821 26.08 55.8821 26.056 55.3061 26.024C54.7301 26.008 54.1781 26 53.6501 26C53.2501 26 52.7861 26.024 52.2581 26.072C51.7301 26.136 51.3861 26.176 51.2261 26.192L51.3701 24.584C51.8661 24.52 52.2181 24.368 52.4261 24.128C52.6501 23.872 52.7861 23.448 52.8341 22.856C52.8341 22.728 52.8581 22.536 52.9061 22.28C53.4981 16.552 53.7941 13.544 53.7941 13.256C53.7941 12.824 53.6741 12.536 53.4341 12.392C53.2101 12.248 52.7301 12.136 51.9941 12.056L51.8501 11.912L52.0661 10.472C52.3061 10.488 52.7301 10.512 53.3381 10.544C53.9621 10.576 54.5621 10.592 55.1381 10.592C55.6821 10.592 56.2101 10.584 56.7221 10.568C57.2341 10.536 57.5781 10.512 57.7541 10.496C58.3621 12.72 58.9621 14.792 59.5541 16.712C60.1461 18.616 60.5301 19.832 60.7061 20.36H60.9221C61.0981 19.832 61.4981 18.616 62.1221 16.712C62.7461 14.808 63.3861 12.76 64.0421 10.568C64.4101 10.568 64.7061 10.576 64.9301 10.592L66.2501 10.616L67.0181 10.592C67.5301 10.576 68.0181 10.552 68.4821 10.52C68.9621 10.488 69.2821 10.464 69.4421 10.448L69.5381 10.544L69.3941 12.032C68.7061 12.08 68.2421 12.192 68.0021 12.368C67.7621 12.544 67.6421 12.856 67.6421 13.304C67.6421 13.816 67.7061 15.072 67.8341 17.072C67.9621 19.056 68.0901 20.776 68.2181 22.232C68.2981 23.096 68.4181 23.68 68.5781 23.984C68.7381 24.272 69.0021 24.416 69.3701 24.416C69.5301 24.416 69.6741 24.408 69.8021 24.392C69.9301 24.376 70.0181 24.368 70.0661 24.368L70.1621 24.512L69.9461 26.072C69.7861 26.056 69.4661 26.04 68.9861 26.024C68.5221 26.008 68.0261 26 67.4981 26C67.1141 26 66.4501 26.024 65.5061 26.072C64.5781 26.12 64.0741 26.16 63.9941 26.192L64.1621 24.56C64.6261 24.512 64.9621 24.4 65.1701 24.224C65.3941 24.032 65.5061 23.752 65.5061 23.384C65.5061 23 65.4341 21.752 65.2901 19.64C65.1621 17.512 65.0741 16.072 65.0261 15.32H64.8101C63.4821 19.032 62.2581 22.648 61.1381 26.168L59.4101 26.384ZM76.0618 26.288C75.3098 26.288 74.6218 26.216 73.9978 26.072C73.3738 25.944 72.8538 25.8 72.4378 25.64C72.0218 25.48 71.8138 25.392 71.8138 25.376L71.6218 25.04C71.6378 24.928 71.6698 24.688 71.7178 24.32C71.7818 23.936 71.8458 23.424 71.9098 22.784C71.9738 22.144 72.0058 21.536 72.0058 20.96L74.0218 20.792C74.0218 21.688 74.1018 22.376 74.2618 22.856C74.4218 23.336 74.6858 23.672 75.0538 23.864C75.4378 24.056 75.9738 24.152 76.6618 24.152C77.4138 24.152 78.0138 23.984 78.4618 23.648C78.9258 23.312 79.1578 22.864 79.1578 22.304C79.1578 21.936 79.0298 21.608 78.7738 21.32C78.5178 21.032 78.2058 20.784 77.8378 20.576C77.4698 20.352 76.9338 20.064 76.2298 19.712L75.6058 19.424C74.4218 18.848 73.4938 18.24 72.8218 17.6C72.1498 16.96 71.8138 16.128 71.8138 15.104C71.8138 14.176 72.0858 13.352 72.6298 12.632C73.1738 11.896 73.9338 11.328 74.9098 10.928C75.8858 10.512 76.9978 10.304 78.2458 10.304C78.9498 10.304 79.6058 10.352 80.2138 10.448C80.8218 10.544 81.3018 10.648 81.6538 10.76C82.0218 10.856 82.2538 10.92 82.3498 10.952L82.5178 11.264C82.4698 11.488 82.3738 12.008 82.2298 12.824C82.1018 13.624 82.0058 14.48 81.9418 15.392L80.1178 15.536L79.9018 15.368C79.9018 15.32 79.9018 15.224 79.9018 15.08C79.9178 14.92 79.9258 14.736 79.9258 14.528C79.9258 13.824 79.7498 13.328 79.3978 13.04C79.0458 12.736 78.4538 12.584 77.6218 12.584C76.9498 12.584 76.3978 12.744 75.9658 13.064C75.5338 13.384 75.3178 13.792 75.3178 14.288C75.3178 14.832 75.5738 15.296 76.0858 15.68C76.5978 16.048 77.3898 16.48 78.4618 16.976C79.3578 17.408 80.0938 17.8 80.6698 18.152C81.2458 18.504 81.7338 18.96 82.1338 19.52C82.5338 20.064 82.7338 20.704 82.7338 21.44C82.7338 22.4 82.4538 23.248 81.8938 23.984C81.3498 24.72 80.5738 25.288 79.5658 25.688C78.5578 26.088 77.3898 26.288 76.0618 26.288ZM89.6468 22.616C89.6468 23.176 89.6868 23.576 89.7668 23.816C89.8468 24.056 89.9988 24.224 90.2228 24.32C90.4468 24.4 90.8308 24.448 91.3748 24.464L91.4468 24.608L91.2308 26.096C90.9428 26.08 90.4228 26.064 89.6708 26.048C88.9348 26.032 88.2628 26.024 87.6548 26.024C87.0628 26.024 86.4468 26.04 85.8068 26.072C85.1828 26.104 84.7748 26.128 84.5828 26.144L84.7988 24.536C85.4708 24.44 85.9188 24.264 86.1428 24.008C86.3828 23.736 86.5028 23.256 86.5028 22.568V13.328C86.5028 12.88 86.4468 12.576 86.3348 12.416C86.2388 12.24 86.0468 12.152 85.7588 12.152C85.5828 12.152 85.4068 12.16 85.2308 12.176C85.0708 12.192 84.9668 12.2 84.9188 12.2L84.7748 12.008L84.9908 10.544C85.2148 10.544 85.6308 10.552 86.2388 10.568C86.8468 10.584 87.4388 10.592 88.0148 10.592C88.6708 10.592 89.3748 10.576 90.1268 10.544C90.8788 10.512 91.3988 10.488 91.6868 10.472C93.5268 10.472 94.9348 10.832 95.9108 11.552C96.8868 12.256 97.3748 13.272 97.3748 14.6C97.3748 15.544 97.0948 16.408 96.5348 17.192C95.9908 17.976 95.1988 18.64 94.1588 19.184L96.2468 22.544C96.6788 23.264 97.1028 23.792 97.5188 24.128C97.9508 24.448 98.4148 24.608 98.9108 24.608L99.0788 24.848L98.9108 26.12L96.0547 26.384C94.9988 26.384 94.1188 25.64 93.4148 24.152L91.3748 19.976H89.6948L89.6468 22.616ZM91.9268 18.056C93.2868 17.496 93.9668 16.496 93.9668 15.056C93.9668 14.176 93.6708 13.528 93.0788 13.112C92.5028 12.68 91.6068 12.464 90.3908 12.464C90.2308 12.464 90.1268 12.496 90.0788 12.56C90.0308 12.624 89.9988 12.768 89.9828 12.992C89.8548 14.976 89.7828 16.584 89.7668 17.816L91.9268 18.056Z" fill="black"/>
<path d="M2.41 40.07C1.98333 40.07 1.61667 40.0067 1.31 39.88C1.00333 39.7467 0.766667 39.5967 0.6 39.43C0.44 39.2567 0.36 39.11 0.36 38.99C0.36 38.9367 0.373333 38.88 0.4 38.82C0.433333 38.76 0.473333 38.7133 0.52 38.68C0.566667 38.64 0.613333 38.62 0.66 38.62C0.726667 38.62 0.793333 38.6633 0.86 38.75C0.933333 38.83 1.02667 38.9267 1.14 39.04C1.26 39.1467 1.41667 39.2433 1.61 39.33C1.80333 39.41 2.05667 39.45 2.37 39.45C2.68333 39.45 2.95 39.4 3.17 39.3C3.39 39.1933 3.56 39.04 3.68 38.84C3.8 38.6333 3.86 38.3767 3.86 38.07C3.86 37.75 3.8 37.4933 3.68 37.3C3.56 37.1067 3.4 36.9467 3.2 36.82C3.00667 36.6933 2.79333 36.5867 2.56 36.5C2.32667 36.4133 2.09 36.3233 1.85 36.23C1.61667 36.1367 1.4 36.0233 1.2 35.89C1 35.75 0.84 35.57 0.72 35.35C0.6 35.1233 0.54 34.8367 0.54 34.49C0.54 34.13 0.606667 33.8333 0.74 33.6C0.873333 33.36 1.04333 33.1733 1.25 33.04C1.46333 32.9067 1.69333 32.8133 1.94 32.76C2.18667 32.7 2.42667 32.67 2.66 32.67C2.84667 32.67 3.03667 32.6867 3.23 32.72C3.43 32.7467 3.61333 32.7867 3.78 32.84C3.94667 32.8933 4.08 32.96 4.18 33.04C4.28667 33.1133 4.34 33.1967 4.34 33.29C4.34 33.33 4.32667 33.38 4.3 33.44C4.28 33.4933 4.25 33.5433 4.21 33.59C4.17 33.6367 4.11667 33.66 4.05 33.66C3.99 33.66 3.90667 33.63 3.8 33.57C3.69333 33.5033 3.54667 33.44 3.36 33.38C3.18 33.3133 2.94333 33.28 2.65 33.28C2.41 33.28 2.17667 33.3133 1.95 33.38C1.73 33.4467 1.55 33.5667 1.41 33.74C1.27 33.9067 1.2 34.1367 1.2 34.43C1.2 34.6967 1.26 34.9133 1.38 35.08C1.50667 35.24 1.66667 35.37 1.86 35.47C2.06 35.57 2.27667 35.6633 2.51 35.75C2.74333 35.83 2.97667 35.9233 3.21 36.03C3.45 36.13 3.66667 36.26 3.86 36.42C4.06 36.5733 4.22 36.7767 4.34 37.03C4.46 37.2833 4.52 37.61 4.52 38.01C4.52 38.4833 4.43 38.8733 4.25 39.18C4.07 39.48 3.82 39.7033 3.5 39.85C3.18667 39.9967 2.82333 40.07 2.41 40.07ZM10.1923 40C10.1057 40 10.029 39.98 9.96234 39.94C9.89568 39.8933 9.86234 39.8267 9.86234 39.74V33.31H8.18234C8.10234 33.31 8.03901 33.28 7.99234 33.22C7.94568 33.1533 7.92234 33.08 7.92234 33C7.92234 32.92 7.94568 32.85 7.99234 32.79C8.03901 32.7233 8.10234 32.69 8.18234 32.69H12.1923C12.279 32.69 12.3423 32.7233 12.3823 32.79C12.4223 32.85 12.4423 32.9167 12.4423 32.99C12.4423 33.07 12.4223 33.1433 12.3823 33.21C12.3423 33.2767 12.279 33.31 12.1923 33.31H10.5223V39.74C10.5223 39.8267 10.4857 39.8933 10.4123 39.94C10.3457 39.98 10.2723 40 10.1923 40ZM18.278 40.06C17.8846 40.06 17.5313 39.99 17.218 39.85C16.9046 39.71 16.6546 39.4833 16.468 39.17C16.2813 38.8567 16.188 38.44 16.188 37.92V32.94C16.188 32.8533 16.2213 32.79 16.288 32.75C16.3546 32.71 16.4313 32.69 16.518 32.69C16.6046 32.69 16.6813 32.71 16.748 32.75C16.8146 32.79 16.848 32.8533 16.848 32.94V37.92C16.848 38.4467 16.9746 38.8333 17.228 39.08C17.4813 39.3267 17.8313 39.45 18.278 39.45C18.7313 39.45 19.0846 39.3267 19.338 39.08C19.5913 38.8333 19.718 38.4467 19.718 37.92V32.94C19.718 32.8533 19.7513 32.79 19.818 32.75C19.8846 32.71 19.9613 32.69 20.048 32.69C20.1346 32.69 20.2113 32.71 20.278 32.75C20.3446 32.79 20.378 32.8533 20.378 32.94V37.92C20.378 38.44 20.2846 38.8567 20.098 39.17C19.918 39.4833 19.668 39.71 19.348 39.85C19.028 39.99 18.6713 40.06 18.278 40.06ZM25.0627 40C24.9694 40 24.8961 39.9767 24.8427 39.93C24.7894 39.8833 24.7627 39.8233 24.7627 39.75V32.94C24.7627 32.8667 24.7894 32.8067 24.8427 32.76C24.8961 32.7133 24.9694 32.69 25.0627 32.69H26.8327C27.2261 32.69 27.5794 32.76 27.8927 32.9C28.2127 33.04 28.4627 33.2667 28.6427 33.58C28.8294 33.8933 28.9227 34.31 28.9227 34.83V37.86C28.9227 38.38 28.8294 38.7967 28.6427 39.11C28.4627 39.4233 28.2127 39.65 27.8927 39.79C27.5794 39.93 27.2261 40 26.8327 40H25.0627ZM25.4227 39.39H26.8327C27.2794 39.39 27.6294 39.2667 27.8827 39.02C28.1361 38.7733 28.2627 38.3867 28.2627 37.86V34.83C28.2627 34.3033 28.1361 33.9167 27.8827 33.67C27.6294 33.4233 27.2794 33.3 26.8327 33.3H25.4227V39.39ZM33.5584 40C33.4851 40 33.4151 39.98 33.3484 39.94C33.2884 39.8933 33.2584 39.8267 33.2584 39.74V32.95C33.2584 32.8633 33.2884 32.8 33.3484 32.76C33.4151 32.7133 33.4851 32.69 33.5584 32.69H37.1184C37.2051 32.69 37.2684 32.7233 37.3084 32.79C37.3484 32.85 37.3684 32.9167 37.3684 32.99C37.3684 33.07 37.3451 33.1433 37.2984 33.21C37.2584 33.27 37.1984 33.3 37.1184 33.3H33.9184V36.05H35.4884C35.5684 36.05 35.6284 36.08 35.6684 36.14C35.7151 36.2 35.7384 36.27 35.7384 36.35C35.7384 36.4167 35.7184 36.48 35.6784 36.54C35.6384 36.6 35.5751 36.63 35.4884 36.63H33.9184V39.39H37.1184C37.1984 39.39 37.2584 39.42 37.2984 39.48C37.3451 39.54 37.3684 39.6133 37.3684 39.7C37.3684 39.7733 37.3484 39.8433 37.3084 39.91C37.2684 39.97 37.2051 40 37.1184 40H33.5584ZM41.5666 40C41.4799 40 41.4032 39.98 41.3366 39.94C41.2699 39.8933 41.2366 39.8267 41.2366 39.74V32.94C41.2366 32.8467 41.2699 32.7833 41.3366 32.75C41.4032 32.71 41.4799 32.69 41.5666 32.69C41.6466 32.69 41.7166 32.7133 41.7766 32.76C41.8366 32.8 41.8932 32.8567 41.9466 32.93C41.9999 32.9967 42.0466 33.0733 42.0866 33.16L44.7866 38.47V32.94C44.7866 32.8533 44.8199 32.79 44.8866 32.75C44.9532 32.71 45.0299 32.69 45.1166 32.69C45.1966 32.69 45.2699 32.71 45.3366 32.75C45.4099 32.79 45.4466 32.8533 45.4466 32.94V39.74C45.4466 39.8267 45.4099 39.8933 45.3366 39.94C45.2699 39.98 45.1966 40 45.1166 40C45.0232 40 44.9366 39.9633 44.8566 39.89C44.7832 39.81 44.7232 39.72 44.6766 39.62L41.8966 34.21V39.74C41.8966 39.8267 41.8599 39.8933 41.7866 39.94C41.7199 39.98 41.6466 40 41.5666 40ZM51.499 40C51.4123 40 51.3357 39.98 51.269 39.94C51.2023 39.8933 51.169 39.8267 51.169 39.74V33.31H49.489C49.409 33.31 49.3457 33.28 49.299 33.22C49.2523 33.1533 49.229 33.08 49.229 33C49.229 32.92 49.2523 32.85 49.299 32.79C49.3457 32.7233 49.409 32.69 49.489 32.69H53.499C53.5857 32.69 53.649 32.7233 53.689 32.79C53.729 32.85 53.749 32.9167 53.749 32.99C53.749 33.07 53.729 33.1433 53.689 33.21C53.649 33.2767 53.5857 33.31 53.499 33.31H51.829V39.74C51.829 39.8267 51.7923 39.8933 51.719 39.94C51.6523 39.98 51.579 40 51.499 40ZM64.0866 40.07C63.6599 40.07 63.2932 40.0067 62.9866 39.88C62.6799 39.7467 62.4432 39.5967 62.2766 39.43C62.1166 39.2567 62.0366 39.11 62.0366 38.99C62.0366 38.9367 62.0499 38.88 62.0766 38.82C62.1099 38.76 62.1499 38.7133 62.1966 38.68C62.2432 38.64 62.2899 38.62 62.3366 38.62C62.4032 38.62 62.4699 38.6633 62.5366 38.75C62.6099 38.83 62.7032 38.9267 62.8166 39.04C62.9366 39.1467 63.0932 39.2433 63.2866 39.33C63.4799 39.41 63.7332 39.45 64.0466 39.45C64.3599 39.45 64.6266 39.4 64.8466 39.3C65.0666 39.1933 65.2366 39.04 65.3566 38.84C65.4766 38.6333 65.5366 38.3767 65.5366 38.07C65.5366 37.75 65.4766 37.4933 65.3566 37.3C65.2366 37.1067 65.0766 36.9467 64.8766 36.82C64.6832 36.6933 64.4699 36.5867 64.2366 36.5C64.0032 36.4133 63.7666 36.3233 63.5266 36.23C63.2932 36.1367 63.0766 36.0233 62.8766 35.89C62.6766 35.75 62.5166 35.57 62.3966 35.35C62.2766 35.1233 62.2166 34.8367 62.2166 34.49C62.2166 34.13 62.2832 33.8333 62.4166 33.6C62.5499 33.36 62.7199 33.1733 62.9266 33.04C63.1399 32.9067 63.3699 32.8133 63.6166 32.76C63.8632 32.7 64.1032 32.67 64.3366 32.67C64.5232 32.67 64.7132 32.6867 64.9066 32.72C65.1066 32.7467 65.2899 32.7867 65.4566 32.84C65.6232 32.8933 65.7566 32.96 65.8566 33.04C65.9632 33.1133 66.0166 33.1967 66.0166 33.29C66.0166 33.33 66.0032 33.38 65.9766 33.44C65.9566 33.4933 65.9266 33.5433 65.8866 33.59C65.8466 33.6367 65.7932 33.66 65.7266 33.66C65.6666 33.66 65.5832 33.63 65.4766 33.57C65.3699 33.5033 65.2232 33.44 65.0366 33.38C64.8566 33.3133 64.6199 33.28 64.3266 33.28C64.0866 33.28 63.8532 33.3133 63.6266 33.38C63.4066 33.4467 63.2266 33.5667 63.0866 33.74C62.9466 33.9067 62.8766 34.1367 62.8766 34.43C62.8766 34.6967 62.9366 34.9133 63.0566 35.08C63.1832 35.24 63.3432 35.37 63.5366 35.47C63.7366 35.57 63.9532 35.6633 64.1866 35.75C64.4199 35.83 64.6532 35.9233 64.8866 36.03C65.1266 36.13 65.3432 36.26 65.5366 36.42C65.7366 36.5733 65.8966 36.7767 66.0166 37.03C66.1366 37.2833 66.1966 37.61 66.1966 38.01C66.1966 38.4833 66.1066 38.8733 65.9266 39.18C65.7466 39.48 65.4966 39.7033 65.1766 39.85C64.8632 39.9967 64.4999 40.07 64.0866 40.07ZM70.608 40C70.5213 40 70.4446 39.98 70.378 39.94C70.3113 39.8933 70.278 39.8267 70.278 39.74V32.94C70.278 32.8733 70.3013 32.8167 70.348 32.77C70.4013 32.7233 70.4713 32.6967 70.558 32.69H72.398C72.7846 32.69 73.1346 32.76 73.448 32.9C73.7613 33.04 74.008 33.2667 74.188 33.58C74.368 33.8867 74.458 34.2967 74.458 34.81V34.91C74.458 35.43 74.3646 35.8467 74.178 36.16C73.998 36.4667 73.748 36.6933 73.428 36.84C73.1146 36.98 72.7646 37.05 72.378 37.05H70.938V39.74C70.938 39.8267 70.9013 39.8933 70.828 39.94C70.7613 39.98 70.688 40 70.608 40ZM70.938 36.47H72.378C72.8246 36.47 73.1713 36.3467 73.418 36.1C73.6713 35.8467 73.798 35.46 73.798 34.94V34.83C73.798 34.3033 73.6713 33.9167 73.418 33.67C73.1713 33.4233 72.8246 33.3 72.378 33.3H70.938V36.47ZM77.8613 40C77.8079 40 77.7513 39.99 77.6913 39.97C77.6313 39.9433 77.5813 39.91 77.5413 39.87C77.5013 39.8233 77.4813 39.7733 77.4813 39.72C77.4813 39.6933 77.4846 39.67 77.4913 39.65L79.5813 32.87C79.6079 32.7833 79.6579 32.7233 79.7313 32.69C79.8046 32.65 79.8846 32.63 79.9713 32.63C80.0646 32.63 80.1479 32.65 80.2212 32.69C80.3013 32.73 80.3513 32.79 80.3713 32.87L82.4513 39.65C82.4579 39.67 82.4613 39.69 82.4613 39.71C82.4613 39.7633 82.4413 39.8133 82.4013 39.86C82.3613 39.9 82.3113 39.9333 82.2513 39.96C82.1913 39.9867 82.1279 40 82.0613 40C82.0079 40 81.9579 39.9867 81.9113 39.96C81.8646 39.9333 81.8313 39.89 81.8113 39.83L81.3513 38.29H78.5913L78.1313 39.83C78.1113 39.89 78.0779 39.9333 78.0313 39.96C77.9846 39.9867 77.9279 40 77.8613 40ZM78.7512 37.72H81.1813L79.9713 33.69L78.7512 37.72ZM88.3221 40.06C87.9488 40.06 87.6021 39.99 87.2821 39.85C86.9621 39.71 86.7088 39.4833 86.5221 39.17C86.3354 38.8567 86.2421 38.44 86.2421 37.92V34.83C86.2421 34.31 86.3388 33.8933 86.5321 33.58C86.7254 33.2667 86.9788 33.04 87.2921 32.9C87.6121 32.76 87.9621 32.69 88.3421 32.69C88.7821 32.69 89.1554 32.7667 89.4621 32.92C89.7688 33.0733 90.0021 33.2767 90.1621 33.53C90.3288 33.7833 90.4121 34.0633 90.4121 34.37C90.4121 34.53 90.3821 34.6367 90.3221 34.69C90.2688 34.7367 90.1888 34.76 90.0821 34.76C89.9621 34.76 89.8754 34.7367 89.8221 34.69C89.7754 34.6367 89.7488 34.5767 89.7421 34.51C89.7421 34.4033 89.7221 34.2833 89.6821 34.15C89.6488 34.01 89.5821 33.8767 89.4821 33.75C89.3888 33.6167 89.2488 33.51 89.0621 33.43C88.8821 33.3433 88.6454 33.3 88.3521 33.3C87.8854 33.3 87.5288 33.4267 87.2821 33.68C87.0354 33.9267 86.9121 34.31 86.9121 34.83V37.92C86.9121 38.4467 87.0354 38.8333 87.2821 39.08C87.5354 39.3267 87.9021 39.45 88.3821 39.45C88.6821 39.45 88.9188 39.41 89.0921 39.33C89.2654 39.2433 89.3954 39.14 89.4821 39.02C89.5688 38.8933 89.6288 38.76 89.6621 38.62C89.7021 38.4733 89.7288 38.34 89.7421 38.22C89.7554 38.1333 89.7854 38.07 89.8321 38.03C89.8854 37.9833 89.9654 37.96 90.0721 37.96C90.1854 37.96 90.2688 37.99 90.3221 38.05C90.3821 38.1033 90.4121 38.21 90.4121 38.37C90.4121 38.67 90.3288 38.95 90.1621 39.21C89.9954 39.4633 89.7554 39.67 89.4421 39.83C89.1354 39.9833 88.7621 40.06 88.3221 40.06ZM94.776 40C94.7027 40 94.6327 39.98 94.566 39.94C94.506 39.8933 94.476 39.8267 94.476 39.74V32.95C94.476 32.8633 94.506 32.8 94.566 32.76C94.6327 32.7133 94.7027 32.69 94.776 32.69H98.336C98.4227 32.69 98.486 32.7233 98.526 32.79C98.566 32.85 98.586 32.9167 98.586 32.99C98.586 33.07 98.5627 33.1433 98.516 33.21C98.476 33.27 98.416 33.3 98.336 33.3H95.136V36.05H96.706C96.786 36.05 96.846 36.08 96.886 36.14C96.9327 36.2 96.956 36.27 96.956 36.35C96.956 36.4167 96.936 36.48 96.896 36.54C96.856 36.6 96.7927 36.63 96.706 36.63H95.136V39.39H98.336C98.416 39.39 98.476 39.42 98.516 39.48C98.5627 39.54 98.586 39.6133 98.586 39.7C98.586 39.7733 98.566 39.8433 98.526 39.91C98.486 39.97 98.4227 40 98.336 40H94.776Z" fill="black"/>
</svg>
